ffmpeg started on 2016-12-08 at 18:38:38
Report written to "Output/x264/results/ffmpeg/sintelveryslow6000k.log"
Command line:
Tools/ffmpeg/ffmpeg -benchmark -y -i Input/y4m/sintel.y4m -c:v libx264 -preset veryslow -b:v 6000k -an Output/x264/encoded/sintelveryslow6000k.mkv
ffmpeg version N-82227-gdb23fde Copyright (c) 2000-2016 the FFmpeg developers
  built with gcc 5.4.0 (Ubuntu 5.4.0-6ubuntu1~16.04.2) 20160609
  configuration: --prefix=/home/jaroslav/ffmpeg_build --pkg-config-flags=--static --extra-cflags=-I/home/jaroslav/ffmpeg_build/include --extra-ldflags=-L/home/jaroslav/ffmpeg_build/lib --bindir=/home/jaroslav/bin --enable-gpl --enable-libass --enable-libfdk-aac --enable-libfreetype --enable-libmp3lame --enable-libopus --enable-libtheora --enable-libvorbis --enable-libvpx --enable-libx264 --enable-libx265 --enable-nvenc --enable-libmfx --enable-libxvid --enable-libgsm --enable-libopencore-amrnb --enable-version3 --enable-nonfree
  libavutil      55. 35.100 / 55. 35.100
  libavcodec     57. 66.101 / 57. 66.101
  libavformat    57. 57.100 / 57. 57.100
  libavdevice    57.  2.100 / 57.  2.100
  libavfilter     6. 66.100 /  6. 66.100
  libswscale      4.  3.100 /  4.  3.100
  libswresample   2.  4.100 /  2.  4.100
  libpostproc    54.  2.100 / 54.  2.100
Input #0, yuv4mpegpipe, from 'Input/y4m/sintel.y4m':
  Duration: 00:00:20.83, start: 0.000000, bitrate: 2057307 kb/s
    Stream #0:0: Video: rawvideo (I420 / 0x30323449), yuv420p(progressive), 4096x1744, SAR 1:1 DAR 256:109, 24 fps, 24 tbr, 24 tbn, 24 tbc
[libx264 @ 0x2b581c0] using SAR=1/1
[libx264 @ 0x2b581c0] DPB size (16 frames, 446464 mbs) > level limit (6 frames, 184320 mbs)
[libx264 @ 0x2b581c0] using cpu capabilities: MMX2 SSE2Fast SSSE3 SSE4.2 AVX FMA3 AVX2 LZCNT BMI2
[libx264 @ 0x2b581c0] profile High, level 5.2
[libx264 @ 0x2b581c0] 264 - core 148 - H.264/MPEG-4 AVC codec - Copyleft 2003-2016 - http://www.videolan.org/x264.html - options: cabac=1 ref=16 deblock=1:0:0 analyse=0x3:0x133 me=umh subme=10 psy=1 psy_rd=1.00:0.00 mixed_ref=1 me_range=24 chroma_me=1 trellis=2 8x8dct=1 cqm=0 deadzone=21,11 fast_pskip=1 chroma_qp_offset=-2 threads=6 lookahead_threads=1 sliced_threads=0 nr=0 decimate=1 interlaced=0 bluray_compat=0 constrained_intra=0 bframes=8 b_pyramid=2 b_adapt=2 b_bias=0 direct=3 weightb=1 open_gop=0 weightp=2 keyint=250 keyint_min=24 scenecut=40 intra_refresh=0 rc_lookahead=60 rc=abr mbtree=1 bitrate=6000 ratetol=1.0 qcomp=0.60 qpmin=0 qpmax=69 qpstep=4 ip_ratio=1.40 aq=1:1.00
Output #0, matroska, to 'Output/x264/encoded/sintelveryslow6000k.mkv':
  Metadata:
    encoder         : Lavf57.57.100
    Stream #0:0: Video: h264 (libx264) (H264 / 0x34363248), yuv420p, 4096x1744 [SAR 1:1 DAR 256:109], q=-1--1, 6000 kb/s, 24 fps, 1k tbn, 24 tbc
    Metadata:
      encoder         : Lavc57.66.101 libx264
    Side data:
      cpb: bitrate max/min/avg: 0/0/6000000 buffer size: 0 vbv_delay: -1
Stream mapping:
  Stream #0:0 -> #0:0 (rawvideo (native) -> h264 (libx264))
Press [q] to stop, [?] for help
frame=   10 fps=0.0 q=0.0 size=       0kB time=00:00:00.00 bitrate=N/A speed=   0x    frame=   18 fps= 15 q=0.0 size=       0kB time=00:00:00.00 bitrate=N/A speed=   0x    frame=   26 fps= 15 q=0.0 size=       0kB time=00:00:00.00 bitrate=N/A speed=   0x    frame=   34 fps= 15 q=0.0 size=       0kB time=00:00:00.00 bitrate=N/A speed=   0x    frame=   42 fps= 15 q=0.0 size=       0kB time=00:00:00.00 bitrate=N/A speed=   0x    frame=   50 fps= 15 q=0.0 size=       0kB time=00:00:00.00 bitrate=N/A speed=   0x    frame=   54 fps= 14 q=0.0 size=       0kB time=00:00:00.00 bitrate=N/A speed=   0x    frame=   63 fps= 15 q=0.0 size=       0kB time=00:00:00.00 bitrate=N/A speed=   0x    frame=   70 fps=9.0 q=0.0 size=       0kB time=00:00:00.00 bitrate=N/A speed=   0x    frame=   71 fps=7.3 q=0.0 size=       0kB time=00:00:00.00 bitrate=N/A speed=   0x    frame=   72 fps=3.2 q=0.0 size=       0kB time=00:00:00.00 bitrate=N/A speed=   0x    frame=   76 fps=3.2 q=29.0 size=       1kB time=-00:00:00.08 bitrate=N/A speed=N/A    frame=   79 fps=3.1 q=34.0 size=       1kB time=00:00:00.04 bitrate= 136.9kbits/s speed=0.0017x    frame=   80 fps=3.1 q=46.0 size=       1kB time=00:00:00.08 bitrate=  70.1kbits/s speed=0.00324x    frame=   81 fps=2.9 q=40.0 size=       1kB time=00:00:00.12 bitrate=  46.7kbits/s speed=0.00458x    frame=   82 fps=2.9 q=43.0 size=       1kB time=00:00:00.16 bitrate=  35.0kbits/s speed=0.00586x    frame=   83 fps=2.8 q=47.0 size=       1kB time=00:00:00.20 bitrate=  28.2kbits/s speed=0.00715x    frame=   87 fps=2.8 q=46.0 size=       1kB time=00:00:00.37 bitrate=  15.7kbits/s speed=0.0121x    frame=   88 fps=2.8 q=46.0 size=       1kB time=00:00:00.41 bitrate=  14.1kbits/s speed=0.0132x    frame=   89 fps=2.7 q=46.0 size=       1kB time=00:00:00.45 bitrate=  12.8kbits/s speed=0.0141x    frame=   90 fps=2.7 q=46.0 size=       1kB time=00:00:00.50 bitrate=  11.8kbits/s speed=0.0149x    frame=   91 fps=2.7 q=46.0 size=       1kB time=00:00:00.54 bitrate=  10.8kbits/s speed=0.0159x    frame=   92 fps=2.6 q=46.0 size=       1kB time=00:00:00.58 bitrate=  10.1kbits/s speed=0.0165x    frame=   93 fps=2.5 q=46.0 size=       1kB time=00:00:00.62 bitrate=   9.4kbits/s speed=0.0169x    frame=   95 fps=2.5 q=46.0 size=       1kB time=00:00:00.70 bitrate=   8.3kbits/s speed=0.0184x    frame=   96 fps=2.4 q=46.0 size=       1kB time=00:00:00.75 bitrate=   7.8kbits/s speed=0.0189x    frame=   97 fps=2.4 q=46.0 size=       1kB time=00:00:00.79 bitrate=   7.4kbits/s speed=0.0195x    frame=   98 fps=2.3 q=45.0 size=       1kB time=00:00:00.83 bitrate=   7.1kbits/s speed=0.0198x    frame=   99 fps=2.3 q=45.0 size=       1kB time=00:00:00.87 bitrate=   6.7kbits/s speed=0.0203x    frame=  100 fps=2.3 q=45.0 size=       1kB time=00:00:00.91 bitrate=   6.4kbits/s speed=0.0209x    frame=  101 fps=2.2 q=45.0 size=       1kB time=00:00:00.95 bitrate=   6.1kbits/s speed=0.021x    frame=  102 fps=2.2 q=45.0 size=       1kB time=00:00:01.00 bitrate=   5.9kbits/s speed=0.0217x    frame=  103 fps=2.2 q=45.0 size=       1kB time=00:00:01.04 bitrate=   5.6kbits/s speed=0.0223x    frame=  104 fps=2.1 q=45.0 size=       1kB time=00:00:01.08 bitrate=   5.4kbits/s speed=0.0224x    frame=  105 fps=2.1 q=45.0 size=       1kB time=00:00:01.12 bitrate=   5.2kbits/s speed=0.0229x    frame=  106 fps=2.1 q=45.0 size=       1kB time=00:00:01.16 bitrate=   5.0kbits/s speed=0.0234x    frame=  107 fps=2.1 q=45.0 size=       1kB time=00:00:01.20 bitrate=   4.9kbits/s speed=0.0234x    frame=  108 fps=2.0 q=45.0 size=       1kB time=00:00:01.25 bitrate=   4.7kbits/s speed=0.0236x    frame=  109 fps=2.0 q=44.0 size=       1kB time=00:00:01.29 bitrate=   4.6kbits/s speed=0.0239x    frame=  110 fps=2.0 q=44.0 size=       1kB time=00:00:01.33 bitrate=   4.4kbits/s speed=0.0244x    frame=  111 fps=2.0 q=44.0 size=       1kB time=00:00:01.37 bitrate=   4.3kbits/s speed=0.0246x    frame=  112 fps=2.0 q=44.0 size=       1kB time=00:00:01.41 bitrate=   4.2kbits/s speed=0.025x    frame=  113 fps=1.9 q=44.0 size=       1kB time=00:00:01.45 bitrate=   4.0kbits/s speed=0.0252x    frame=  114 fps=1.9 q=44.0 size=       1kB time=00:00:01.50 bitrate=   3.9kbits/s speed=0.0255x    frame=  115 fps=1.9 q=44.0 size=       1kB time=00:00:01.54 bitrate=   3.8kbits/s speed=0.0257x    frame=  116 fps=1.9 q=44.0 size=       1kB time=00:00:01.58 bitrate=   3.7kbits/s speed=0.0259x    frame=  117 fps=1.9 q=44.0 size=       1kB time=00:00:01.62 bitrate=   3.6kbits/s speed=0.0263x    frame=  118 fps=1.9 q=44.0 size=       1kB time=00:00:01.66 bitrate=   3.5kbits/s speed=0.0267x    frame=  119 fps=1.9 q=44.0 size=       1kB time=00:00:01.70 bitrate=   3.4kbits/s speed=0.0271x    frame=  120 fps=1.9 q=44.0 size=       1kB time=00:00:01.75 bitrate=   3.4kbits/s speed=0.0275x    frame=  121 fps=1.9 q=43.0 size=       1kB time=00:00:01.79 bitrate=   3.3kbits/s speed=0.0278x    frame=  122 fps=1.9 q=43.0 size=       1kB time=00:00:01.83 bitrate=   3.2kbits/s speed=0.0281x    frame=  123 fps=1.9 q=43.0 size=       1kB time=00:00:01.87 bitrate=   3.1kbits/s speed=0.0284x    frame=  124 fps=1.8 q=43.0 size=       1kB time=00:00:01.91 bitrate=   3.1kbits/s speed=0.0284x    frame=  126 fps=1.8 q=43.0 size=       1kB time=00:00:02.00 bitrate=   2.9kbits/s speed=0.029x    frame=  127 fps=1.8 q=43.0 size=       1kB time=00:00:02.04 bitrate=   2.9kbits/s speed=0.0292x    frame=  128 fps=1.8 q=43.0 size=       1kB time=00:00:02.08 bitrate=   2.8kbits/s speed=0.0292x    frame=  129 fps=1.8 q=43.0 size=       1kB time=00:00:02.12 bitrate=   2.8kbits/s speed=0.0293x    frame=  130 fps=1.7 q=43.0 size=       1kB time=00:00:02.16 bitrate=   2.7kbits/s speed=0.0292x    frame=  131 fps=1.7 q=43.0 size=       1kB time=00:00:02.20 bitrate=   2.7kbits/s speed=0.0294x    frame=  132 fps=1.7 q=43.0 size=       1kB time=00:00:02.25 bitrate=   2.6kbits/s speed=0.0296x    frame=  133 fps=1.7 q=43.0 size=       1kB time=00:00:02.29 bitrate=   2.6kbits/s speed=0.0298x    frame=  134 fps=1.7 q=43.0 size=       1kB time=00:00:02.33 bitrate=   2.5kbits/s speed=0.0296x    frame=  135 fps=1.7 q=43.0 size=       1kB time=00:00:02.37 bitrate=   2.5kbits/s speed=0.0296x    frame=  136 fps=1.7 q=43.0 size=       1kB time=00:00:02.41 bitrate=   2.4kbits/s speed=0.0299x    frame=  137 fps=1.7 q=43.0 size=       1kB time=00:00:02.45 bitrate=   2.4kbits/s speed=0.03x    frame=  138 fps=1.7 q=43.0 size=       1kB time=00:00:02.50 bitrate=   2.4kbits/s speed=0.03x    frame=  139 fps=1.7 q=43.0 size=       1kB time=00:00:02.54 bitrate=   2.3kbits/s speed=0.0302x    frame=  140 fps=1.6 q=43.0 size=       1kB time=00:00:02.58 bitrate=   2.3kbits/s speed=0.0303x    frame=  141 fps=1.6 q=43.0 size=       1kB time=00:00:02.62 bitrate=   2.2kbits/s speed=0.0305x    frame=  142 fps=1.6 q=43.0 size=       1kB time=00:00:02.66 bitrate=   2.2kbits/s speed=0.0297x    frame=  143 fps=1.6 q=43.0 size=       1kB time=00:00:02.70 bitrate=   2.2kbits/s speed=0.0299x    frame=  144 fps=1.6 q=43.0 size=       1kB time=00:00:02.75 bitrate=   2.1kbits/s speed=0.0302x    frame=  146 fps=1.6 q=43.0 size=       1kB time=00:00:02.83 bitrate=   2.1kbits/s speed=0.0305x    frame=  147 fps=1.6 q=43.0 size=       1kB time=00:00:02.87 bitrate=   2.0kbits/s speed=0.0307x    frame=  148 fps=1.5 q=43.0 size=       1kB time=00:00:02.91 bitrate=   2.0kbits/s speed=0.0302x    frame=  149 fps=1.5 q=42.0 size=       1kB time=00:00:02.95 bitrate=   2.0kbits/s speed=0.0303x    frame=  150 fps=1.5 q=42.0 size=       1kB time=00:00:03.00 bitrate=   2.0kbits/s speed=0.0304x    frame=  151 fps=1.5 q=42.0 size=       1kB time=00:00:03.04 bitrate=   1.9kbits/s speed=0.0305x    frame=  152 fps=1.5 q=42.0 size=       1kB time=00:00:03.08 bitrate=   1.9kbits/s speed=0.0307x    frame=  153 fps=1.5 q=42.0 size=       1kB time=00:00:03.12 bitrate=   1.9kbits/s speed=0.0307x    frame=  154 fps=1.5 q=42.0 size=       1kB time=00:00:03.16 bitrate=   1.9kbits/s speed=0.0305x    frame=  155 fps=1.5 q=42.0 size=       1kB time=00:00:03.20 bitrate=   1.8kbits/s speed=0.0306x    frame=  156 fps=1.5 q=42.0 size=       1kB time=00:00:03.25 bitrate=   1.8kbits/s speed=0.0306x    frame=  157 fps=1.5 q=42.0 size=       1kB time=00:00:03.29 bitrate=   1.8kbits/s speed=0.0305x    frame=  158 fps=1.5 q=42.0 size=       1kB time=00:00:03.33 bitrate=   1.8kbits/s speed=0.0306x    frame=  159 fps=1.4 q=42.0 size=       1kB time=00:00:03.37 bitrate=   1.7kbits/s speed=0.0308x    frame=  160 fps=1.4 q=42.0 size=       1kB time=00:00:03.41 bitrate=   1.7kbits/s speed=0.0307x    frame=  161 fps=1.4 q=42.0 size=       1kB time=00:00:03.45 bitrate=   1.7kbits/s speed=0.0308x    frame=  162 fps=1.4 q=42.0 size=       1kB time=00:00:03.50 bitrate=   1.7kbits/s speed=0.0309x    frame=  163 fps=1.4 q=42.0 size=       1kB time=00:00:03.54 bitrate=   1.7kbits/s speed=0.0307x    frame=  164 fps=1.4 q=42.0 size=       1kB time=00:00:03.58 bitrate=   1.6kbits/s speed=0.0309x    frame=  165 fps=1.4 q=42.0 size=       1kB time=00:00:03.62 bitrate=   1.6kbits/s speed=0.031x    frame=  166 fps=1.4 q=42.0 size=       1kB time=00:00:03.66 bitrate=   1.6kbits/s speed=0.0309x    frame=  167 fps=1.4 q=42.0 size=       1kB time=00:00:03.70 bitrate=   1.6kbits/s speed=0.031x    frame=  168 fps=1.4 q=42.0 size=       1kB time=00:00:03.75 bitrate=   1.6kbits/s speed=0.0312x    frame=  169 fps=1.4 q=42.0 size=       1kB time=00:00:03.79 bitrate=   1.6kbits/s speed=0.0314x    frame=  170 fps=1.4 q=42.0 size=       1kB time=00:00:03.83 bitrate=   1.5kbits/s speed=0.0315x    frame=  171 fps=1.4 q=42.0 size=       1kB time=00:00:03.87 bitrate=   1.5kbits/s speed=0.0315x    frame=  172 fps=1.4 q=42.0 size=       1kB time=00:00:03.91 bitrate=   1.5kbits/s speed=0.0312x    frame=  173 fps=1.4 q=42.0 size=       1kB time=00:00:03.95 bitrate=   1.5kbits/s speed=0.0314x    frame=  175 fps=1.4 q=42.0 size=       1kB time=00:00:04.04 bitrate=   1.5kbits/s speed=0.0318x    frame=  176 fps=1.4 q=41.0 size=       1kB time=00:00:04.08 bitrate=   1.4kbits/s speed=0.032x    frame=  177 fps=1.4 q=41.0 size=       1kB time=00:00:04.12 bitrate=   1.4kbits/s speed=0.0321x    frame=  178 fps=1.4 q=41.0 size=       1kB time=00:00:04.16 bitrate=   1.4kbits/s speed=0.0316x    frame=  179 fps=1.4 q=41.0 size=       1kB time=00:00:04.20 bitrate=   1.4kbits/s speed=0.0318x    frame=  181 fps=1.4 q=41.0 size=       1kB time=00:00:04.29 bitrate=   1.4kbits/s speed=0.0323x    frame=  182 fps=1.3 q=41.0 size=       1kB time=00:00:04.33 bitrate=   1.4kbits/s speed=0.0321x    frame=  183 fps=1.3 q=41.0 size=       1kB time=00:00:04.37 bitrate=   1.3kbits/s speed=0.0323x    frame=  185 fps=1.4 q=41.0 size=       1kB time=00:00:04.45 bitrate=   1.3kbits/s speed=0.0328x    frame=  187 fps=1.3 q=41.0 size=       1kB time=00:00:04.54 bitrate=   1.3kbits/s speed=0.0328x    frame=  188 fps=1.3 q=41.0 size=       1kB time=00:00:04.58 bitrate=   1.3kbits/s speed=0.0327x    frame=  189 fps=1.3 q=41.0 size=       1kB time=00:00:04.62 bitrate=   1.3kbits/s speed=0.0328x    frame=  190 fps=1.3 q=41.0 size=       1kB time=00:00:04.66 bitrate=   1.3kbits/s speed=0.0329x    frame=  191 fps=1.3 q=41.0 size=       1kB time=00:00:04.70 bitrate=   1.3kbits/s speed=0.0331x    frame=  192 fps=1.3 q=41.0 size=       1kB time=00:00:04.75 bitrate=   1.2kbits/s speed=0.0327x    frame=  193 fps=1.3 q=41.0 size=       1kB time=00:00:04.79 bitrate=   1.2kbits/s speed=0.0328x    frame=  194 fps=1.3 q=41.0 size=       1kB time=00:00:04.83 bitrate=   1.2kbits/s speed=0.0329x    frame=  196 fps=1.3 q=41.0 size=    3727kB time=00:00:04.91 bitrate=6208.6kbits/s speed=0.0332x    frame=  197 fps=1.3 q=41.0 size=    3727kB time=00:00:04.95 bitrate=6157.3kbits/s speed=0.0333x    frame=  198 fps=1.3 q=41.0 size=    3727kB time=00:00:05.00 bitrate=6105.6kbits/s speed=0.0333x    frame=  199 fps=1.3 q=41.0 size=    3727kB time=00:00:05.04 bitrate=6054.7kbits/s speed=0.0333x    frame=  200 fps=1.3 q=41.0 size=    3727kB time=00:00:05.08 bitrate=6005.9kbits/s speed=0.0334x    frame=  201 fps=1.3 q=41.0 size=    3727kB time=00:00:05.12 bitrate=5956.7kbits/s speed=0.0333x    frame=  202 fps=1.3 q=41.0 size=    3727kB time=00:00:05.16 bitrate=5908.3kbits/s speed=0.0334x    frame=  203 fps=1.3 q=41.0 size=    3727kB time=00:00:05.20 bitrate=5861.8kbits/s speed=0.0334x    frame=  204 fps=1.3 q=41.0 size=    3727kB time=00:00:05.25 bitrate=5814.9kbits/s speed=0.0335x    frame=  205 fps=1.3 q=41.0 size=    3727kB time=00:00:05.29 bitrate=5768.8kbits/s speed=0.0337x    frame=  206 fps=1.3 q=41.0 size=    3727kB time=00:00:05.33 bitrate=5724.4kbits/s speed=0.0338x    frame=  207 fps=1.3 q=41.0 size=    3727kB time=00:00:05.37 bitrate=5679.7kbits/s speed=0.0338x    frame=  208 fps=1.3 q=41.0 size=    3727kB time=00:00:05.41 bitrate=5635.7kbits/s speed=0.0338x    frame=  209 fps=1.3 q=41.0 size=    3727kB time=00:00:05.45 bitrate=5593.3kbits/s speed=0.0339x    frame=  210 fps=1.3 q=41.0 size=    3727kB time=00:00:05.50 bitrate=5550.6kbits/s speed=0.0339x    frame=  211 fps=1.3 q=41.0 size=    3727kB time=00:00:05.54 bitrate=5508.6kbits/s speed=0.0341x    frame=  212 fps=1.3 q=41.0 size=    3727kB time=00:00:05.58 bitrate=5468.1kbits/s speed=0.0342x    frame=  213 fps=1.3 q=41.0 size=    3727kB time=00:00:05.62 bitrate=5427.3kbits/s speed=0.0343x    frame=  214 fps=1.3 q=41.0 size=    3727kB time=00:00:05.66 bitrate=5387.1kbits/s speed=0.0344x    frame=  215 fps=1.3 q=41.0 size=    3727kB time=00:00:05.70 bitrate=5348.4kbits/s speed=0.0344x    frame=  216 fps=1.3 q=41.0 size=    3727kB time=00:00:05.75 bitrate=5309.3kbits/s speed=0.0346x    frame=  217 fps=1.3 q=41.0 size=    3727kB time=00:00:05.79 bitrate=5270.9kbits/s speed=0.0347x    frame=  218 fps=1.3 q=41.0 size=    3727kB time=00:00:05.83 bitrate=5233.8kbits/s speed=0.0348x    frame=  219 fps=1.3 q=41.0 size=    3727kB time=00:00:05.87 bitrate=5196.4kbits/s speed=0.0347x    frame=  220 fps=1.3 q=41.0 size=    3727kB time=00:00:05.91 bitrate=5159.5kbits/s speed=0.0348x    frame=  221 fps=1.3 q=41.0 size=    3727kB time=00:00:05.95 bitrate=5124.0kbits/s speed=0.0349x    frame=  222 fps=1.3 q=41.0 size=    3727kB time=00:00:06.00 bitrate=5088.2kbits/s speed=0.035x    frame=  224 fps=1.3 q=41.0 size=    3727kB time=00:00:06.08 bitrate=5018.7kbits/s speed=0.0352x    frame=  225 fps=1.3 q=41.0 size=    3727kB time=00:00:06.12 bitrate=4984.3kbits/s speed=0.0352x    frame=  226 fps=1.3 q=41.0 size=    3727kB time=00:00:06.16 bitrate=4950.4kbits/s speed=0.0352x    frame=  227 fps=1.3 q=41.0 size=    3727kB time=00:00:06.20 bitrate=4917.7kbits/s speed=0.0352x    frame=  229 fps=1.3 q=41.0 size=    3727kB time=00:00:06.29 bitrate=4852.1kbits/s speed=0.0354x    frame=  231 fps=1.3 q=40.0 size=    3727kB time=00:00:06.37 bitrate=4788.9kbits/s speed=0.0357x    frame=  233 fps=1.3 q=40.0 size=    3727kB time=00:00:06.45 bitrate=4727.4kbits/s speed=0.0352x    frame=  234 fps=1.3 q=40.0 size=    3727kB time=00:00:06.50 bitrate=4696.8kbits/s speed=0.0353x    frame=  236 fps=1.3 q=40.0 size=    3727kB time=00:00:06.58 bitrate=4637.6kbits/s speed=0.0355x    frame=  237 fps=1.3 q=40.0 size=    3727kB time=00:00:06.62 bitrate=4608.2kbits/s speed=0.0356x    frame=  238 fps=1.3 q=40.0 size=    3727kB time=00:00:06.66 bitrate=4579.2kbits/s speed=0.0356x    frame=  239 fps=1.3 q=40.0 size=    3727kB time=00:00:06.70 bitrate=4551.2kbits/s speed=0.0354x    frame=  240 fps=1.3 q=40.0 size=    3727kB time=00:00:06.75 bitrate=4522.9kbits/s speed=0.0355x    frame=  241 fps=1.3 q=40.0 size=    3727kB time=00:00:06.79 bitrate=4494.9kbits/s speed=0.0356x    frame=  242 fps=1.3 q=40.0 size=    3727kB time=00:00:06.83 bitrate=4468.0kbits/s speed=0.0357x    frame=  243 fps=1.3 q=40.0 size=    3727kB time=00:00:06.87 bitrate=4440.7kbits/s speed=0.0358x    frame=  245 fps=1.3 q=40.0 size=    3727kB time=00:00:06.95 bitrate=4387.7kbits/s speed=0.0359x    frame=  246 fps=1.3 q=40.0 size=    3727kB time=00:00:07.00 bitrate=4361.4kbits/s speed=0.0357x    frame=  247 fps=1.3 q=40.0 size=    3727kB time=00:00:07.04 bitrate=4335.4kbits/s speed=0.0358x    frame=  249 fps=1.3 q=40.0 size=    3727kB time=00:00:07.12 bitrate=4284.9kbits/s speed=0.036x    frame=  250 fps=1.3 q=40.0 size=    3727kB time=00:00:07.16 bitrate=4259.8kbits/s speed=0.0361x    frame=  251 fps=1.3 q=40.0 size=    3727kB time=00:00:07.20 bitrate=4235.5kbits/s speed=0.0361x    frame=  252 fps=1.3 q=40.0 size=    3727kB time=00:00:07.25 bitrate=4211.0kbits/s speed=0.0361x    frame=  253 fps=1.2 q=40.0 size=    3727kB time=00:00:07.29 bitrate=4186.8kbits/s speed=0.036x    frame=  254 fps=1.2 q=40.0 size=    3727kB time=00:00:07.33 bitrate=4163.4kbits/s speed=0.0361x    frame=  255 fps=1.2 q=40.0 size=    3727kB time=00:00:07.37 bitrate=4139.7kbits/s speed=0.0361x    frame=  256 fps=1.2 q=40.0 size=    3727kB time=00:00:07.41 bitrate=4116.2kbits/s speed=0.0361x    frame=  257 fps=1.2 q=40.0 size=    3727kB time=00:00:07.45 bitrate=4093.6kbits/s speed=0.0362x    frame=  258 fps=1.2 q=40.0 size=    3727kB time=00:00:07.50 bitrate=4070.7kbits/s speed=0.0363x    frame=  259 fps=1.2 q=40.0 size=    3727kB time=00:00:07.54 bitrate=4048.0kbits/s speed=0.0364x    frame=  260 fps=1.2 q=40.0 size=    3727kB time=00:00:07.58 bitrate=4026.1kbits/s speed=0.0359x    frame=  261 fps=1.2 q=40.0 size=    3727kB time=00:00:07.62 bitrate=4003.9kbits/s speed=0.036x    frame=  264 fps=1.2 q=40.0 size=    3727kB time=00:00:07.75 bitrate=3939.4kbits/s speed=0.0365x    frame=  266 fps=1.2 q=40.0 size=    3727kB time=00:00:07.83 bitrate=3897.6kbits/s speed=0.0367x    frame=  267 fps=1.2 q=40.0 size=    3727kB time=00:00:07.87 bitrate=3876.8kbits/s speed=0.0363x    frame=  268 fps=1.2 q=39.0 size=    3727kB time=00:00:07.91 bitrate=3856.3kbits/s speed=0.0364x    frame=  270 fps=1.2 q=39.0 size=    3727kB time=00:00:08.00 bitrate=3816.3kbits/s speed=0.0367x    frame=  271 fps=1.2 q=39.0 size=    3727kB time=00:00:08.04 bitrate=3796.4kbits/s speed=0.0368x    frame=  273 fps=1.2 q=39.0 size=    3727kB time=00:00:08.12 bitrate=3757.6kbits/s speed=0.0367x    frame=  274 fps=1.2 q=39.0 size=    3727kB time=00:00:08.16 bitrate=3738.3kbits/s speed=0.0366x    frame=  275 fps=1.2 q=39.0 size=    3727kB time=00:00:08.20 bitrate=3719.6kbits/s speed=0.0367x    frame=  277 fps=1.2 q=39.0 size=    3727kB time=00:00:08.29 bitrate=3681.9kbits/s speed=0.0368x    frame=  278 fps=1.2 q=39.0 size=    3727kB time=00:00:08.33 bitrate=3663.8kbits/s speed=0.0368x    frame=  279 fps=1.2 q=39.0 size=    3727kB time=00:00:08.37 bitrate=3645.4kbits/s speed=0.0369x    frame=  280 fps=1.2 q=39.0 size=    3727kB time=00:00:08.41 bitrate=3627.2kbits/s speed=0.037x    frame=  281 fps=1.2 q=39.0 size=    3727kB time=00:00:08.45 bitrate=3609.7kbits/s speed=0.037x    frame=  282 fps=1.2 q=39.0 size=    3727kB time=00:00:08.50 bitrate=3591.8kbits/s speed=0.0371x    frame=  283 fps=1.2 q=39.0 size=    3727kB time=00:00:08.54 bitrate=3574.2kbits/s speed=0.0371x    frame=  284 fps=1.2 q=39.0 size=    3727kB time=00:00:08.58 bitrate=3557.1kbits/s speed=0.037x    frame=  287 fps=1.2 q=39.0 size=    3727kB time=00:00:08.70 bitrate=3506.0kbits/s speed=0.0374x    frame=  289 fps=1.2 q=39.0 size=    3727kB time=00:00:08.79 bitrate=3472.5kbits/s speed=0.0373x    frame=  292 fps=1.2 q=39.0 size=    3727kB time=00:00:08.91 bitrate=3423.9kbits/s speed=0.0375x    frame=  293 fps=1.2 q=39.0 size=    3727kB time=00:00:08.95 bitrate=3408.2kbits/s speed=0.0375x    frame=  294 fps=1.2 q=39.0 size=    3727kB time=00:00:09.00 bitrate=3392.3kbits/s speed=0.0376x    frame=  295 fps=1.2 q=39.0 size=    3727kB time=00:00:09.04 bitrate=3376.5kbits/s speed=0.0376x    frame=  296 fps=1.2 q=39.0 size=    3727kB time=00:00:09.08 bitrate=3361.3kbits/s speed=0.0377x    frame=  298 fps=1.2 q=39.0 size=    3727kB time=00:00:09.16 bitrate=3330.5kbits/s speed=0.0377x    frame=  300 fps=1.2 q=39.0 size=    3727kB time=00:00:09.25 bitrate=3300.6kbits/s speed=0.0379x    frame=  302 fps=1.2 q=39.0 size=    3727kB time=00:00:09.33 bitrate=3271.3kbits/s speed=0.0378x    frame=  303 fps=1.2 q=39.0 size=    3727kB time=00:00:09.37 bitrate=3256.6kbits/s speed=0.0379x    frame=  304 fps=1.2 q=39.0 size=    3727kB time=00:00:09.41 bitrate=3242.1kbits/s speed=0.038x    frame=  305 fps=1.2 q=39.0 size=    3727kB time=00:00:09.45 bitrate=3228.0kbits/s speed=0.038x    frame=  308 fps=1.2 q=39.0 size=    3727kB time=00:00:09.58 bitrate=3185.9kbits/s speed=0.0384x    frame=  309 fps=1.2 q=39.0 size=    3727kB time=00:00:09.62 bitrate=3172.0kbits/s speed=0.0381x    frame=  311 fps=1.2 q=39.0 size=    3727kB time=00:00:09.70 bitrate=3144.9kbits/s speed=0.0383x    frame=  313 fps=1.2 q=39.0 size=    3727kB time=00:00:09.79 bitrate=3117.9kbits/s speed=0.0385x    frame=  315 fps=1.2 q=39.0 size=    3727kB time=00:00:09.87 bitrate=3091.7kbits/s speed=0.0387x    frame=  316 fps=1.2 q=39.0 size=    3727kB time=00:00:09.91 bitrate=3078.7kbits/s speed=0.0387x    frame=  318 fps=1.2 q=38.0 size=    6843kB time=00:00:10.00 bitrate=5604.9kbits/s speed=0.0388x    frame=  320 fps=1.2 q=38.0 size=    6843kB time=00:00:10.08 bitrate=5558.8kbits/s speed=0.0389x    frame=  321 fps=1.2 q=36.0 size=    6843kB time=00:00:10.12 bitrate=5535.7kbits/s speed=0.0389x    frame=  322 fps=1.2 q=38.0 size=    6843kB time=00:00:10.16 bitrate=5512.9kbits/s speed=0.039x    frame=  324 fps=1.2 q=38.0 size=    6843kB time=00:00:10.25 bitrate=5468.2kbits/s speed=0.0391x    frame=  326 fps=1.2 q=38.0 size=    7014kB time=00:00:10.33 bitrate=5560.1kbits/s speed=0.0393x    frame=  332 fps=1.3 q=38.0 size=    7014kB time=00:00:10.58 bitrate=5428.8kbits/s speed=0.0401x    frame=  334 fps=1.3 q=38.0 size=    7014kB time=00:00:10.66 bitrate=5386.1kbits/s speed=0.0403x    frame=  336 fps=1.3 q=36.0 size=    7014kB time=00:00:10.75 bitrate=5344.5kbits/s speed=0.0405x    frame=  338 fps=1.3 q=38.0 size=    7014kB time=00:00:10.83 bitrate=5303.5kbits/s speed=0.0408x    frame=  340 fps=1.3 q=38.0 size=    7014kB time=00:00:10.91 bitrate=5262.7kbits/s speed=0.041x    frame=  343 fps=1.3 q=38.0 size=    7014kB time=00:00:11.04 bitrate=5203.2kbits/s speed=0.0412x    frame=  345 fps=1.3 q=38.0 size=    7014kB time=00:00:11.12 bitrate=5164.3kbits/s speed=0.0414x    frame=  346 fps=1.3 q=38.0 size=    7014kB time=00:00:11.16 bitrate=5144.9kbits/s speed=0.0413x    frame=  347 fps=1.3 q=38.0 size=    7014kB time=00:00:11.20 bitrate=5126.1kbits/s speed=0.0413x    frame=  349 fps=1.3 q=38.0 size=    7014kB time=00:00:11.29 bitrate=5088.0kbits/s speed=0.0415x    frame=  350 fps=1.3 q=38.0 size=    7014kB time=00:00:11.33 bitrate=5069.6kbits/s speed=0.0415x    frame=  353 fps=1.3 q=38.0 size=    7014kB time=00:00:11.45 bitrate=5014.3kbits/s speed=0.0416x    frame=  354 fps=1.3 q=37.0 size=    7014kB time=00:00:11.50 bitrate=4996.0kbits/s speed=0.0416x    frame=  356 fps=1.3 q=38.0 size=    7014kB time=00:00:11.58 bitrate=4960.2kbits/s speed=0.0419x    frame=  357 fps=1.3 q=37.0 size=    7014kB time=00:00:11.62 bitrate=4942.2kbits/s speed=0.0419x    frame=  358 fps=1.3 q=37.0 size=    7014kB time=00:00:11.66 bitrate=4924.4kbits/s speed=0.0419x    frame=  360 fps=1.3 q=37.0 size=    7014kB time=00:00:11.75 bitrate=4889.7kbits/s speed=0.0419x    frame=  362 fps=1.3 q=37.0 size=    7014kB time=00:00:11.83 bitrate=4855.4kbits/s speed=0.042x    frame=  365 fps=1.3 q=37.0 size=    7014kB time=00:00:11.95 bitrate=4804.6kbits/s speed=0.0423x    frame=  366 fps=1.3 q=37.0 size=    7014kB time=00:00:12.00 bitrate=4787.8kbits/s speed=0.0423x    frame=  368 fps=1.3 q=37.0 size=    7014kB time=00:00:12.08 bitrate=4754.9kbits/s speed=0.0424x    frame=  369 fps=1.3 q=37.0 size=    7014kB time=00:00:12.12 bitrate=4738.4kbits/s speed=0.0424x    frame=  372 fps=1.3 q=37.0 size=    7014kB time=00:00:12.25 bitrate=4690.1kbits/s speed=0.0426x    frame=  373 fps=1.3 q=37.0 size=    7014kB time=00:00:12.29 bitrate=4674.1kbits/s speed=0.0427x    frame=  376 fps=1.3 q=37.0 size=    7014kB time=00:00:12.41 bitrate=4627.0kbits/s speed=0.0429x    frame=  377 fps=1.3 q=37.0 size=    7014kB time=00:00:12.45 bitrate=4611.8kbits/s speed=0.043x    frame=  379 fps=1.3 q=37.0 size=    7014kB time=00:00:12.54 bitrate=4580.9kbits/s speed=0.043x    frame=  382 fps=1.3 q=36.0 size=    7014kB time=00:00:12.66 bitrate=4535.7kbits/s speed=0.0432x    frame=  384 fps=1.3 q=37.0 size=    7014kB time=00:00:12.75 bitrate=4506.2kbits/s speed=0.0434x    frame=  388 fps=1.3 q=36.0 size=    7014kB time=00:00:12.91 bitrate=4447.9kbits/s speed=0.0436x    frame=  391 fps=1.3 q=36.0 size=    7014kB time=00:00:13.04 bitrate=4405.3kbits/s speed=0.0439x    frame=  394 fps=1.3 q=36.0 size=    7014kB time=00:00:13.16 bitrate=4363.5kbits/s speed=0.0439x    frame=  399 fps=1.3 q=36.0 size=    7014kB time=00:00:13.37 bitrate=4295.6kbits/s speed=0.0445x    frame=  400 fps=1.3 q=36.0 size=    7014kB time=00:00:13.41 bitrate=4282.2kbits/s speed=0.0442x    frame=  405 fps=1.3 q=36.0 size=    7014kB time=00:00:13.62 bitrate=4216.8kbits/s speed=0.0448x    frame=  406 fps=1.3 q=36.0 size=    7014kB time=00:00:13.66 bitrate=4203.9kbits/s speed=0.0447x    frame=  408 fps=1.3 q=35.0 size=    7014kB time=00:00:13.75 bitrate=4178.5kbits/s speed=0.0448x    frame=  410 fps=1.3 q=36.0 size=    7014kB time=00:00:13.83 bitrate=4153.4kbits/s speed=0.0449x    frame=  413 fps=1.3 q=35.0 size=    7014kB time=00:00:13.95 bitrate=4116.2kbits/s speed=0.0452x    frame=  414 fps=1.3 q=35.0 size=    7014kB time=00:00:14.00 bitrate=4103.9kbits/s speed=0.0451x    frame=  417 fps=1.3 q=35.0 size=    7014kB time=00:00:14.12 bitrate=4067.6kbits/s speed=0.0454x    frame=  419 fps=1.3 q=35.0 size=    7014kB time=00:00:14.20 bitrate=4043.8kbits/s speed=0.0455x    frame=  420 fps=1.3 q=35.0 size=    7014kB time=00:00:14.25 bitrate=4031.9kbits/s speed=0.0455x    frame=  425 fps=1.3 q=35.0 size=    7014kB time=00:00:14.45 bitrate=3973.9kbits/s speed=0.0459x    frame=  426 fps=1.3 q=35.0 size=    7014kB time=00:00:14.50 bitrate=3962.4kbits/s speed=0.0458x    frame=  428 fps=1.3 q=35.0 size=    7014kB time=00:00:14.58 bitrate=3939.8kbits/s speed=0.046x    frame=  431 fps=1.4 q=34.0 size=    7014kB time=00:00:14.70 bitrate=3906.3kbits/s speed=0.0462x    frame=  432 fps=1.4 q=34.0 size=    7014kB time=00:00:14.75 bitrate=3895.2kbits/s speed=0.0462x    frame=  433 fps=1.4 q=34.0 size=    7014kB time=00:00:14.79 bitrate=3884.2kbits/s speed=0.0462x    frame=  437 fps=1.4 q=34.0 size=    7014kB time=00:00:14.95 bitrate=3841.1kbits/s speed=0.0466x    frame=  438 fps=1.4 q=34.0 size=    7014kB time=00:00:15.00 bitrate=3830.3kbits/s speed=0.0467x    frame=  439 fps=1.3 q=34.0 size=    7014kB time=00:00:15.04 bitrate=3819.6kbits/s speed=0.0461x    frame=  441 fps=1.3 q=34.0 size=    7014kB time=00:00:15.12 bitrate=3798.7kbits/s speed=0.0462x    frame=  443 fps=1.4 q=34.0 size=    7014kB time=00:00:15.20 bitrate=3777.9kbits/s speed=0.0464x    frame=  445 fps=1.3 q=34.0 size=    9268kB time=00:00:15.29 bitrate=4964.4kbits/s speed=0.0464x    frame=  446 fps=1.3 q=34.0 size=    9268kB time=00:00:15.33 bitrate=4951.1kbits/s speed=0.0463x    frame=  448 fps=1.3 q=34.0 size=    9268kB time=00:00:15.41 bitrate=4924.1kbits/s speed=0.0464x    frame=  449 fps=1.3 q=34.0 size=    9268kB time=00:00:15.45 bitrate=4911.1kbits/s speed=0.0464x    frame=  450 fps=1.3 q=34.0 size=    9268kB time=00:00:15.50 bitrate=4897.8kbits/s speed=0.0465x    frame=  452 fps=1.3 q=34.0 size=    9268kB time=00:00:15.58 bitrate=4871.7kbits/s speed=0.0463x    frame=  454 fps=1.3 q=34.0 size=    9268kB time=00:00:15.66 bitrate=4845.6kbits/s speed=0.0464x    frame=  456 fps=1.3 q=34.0 size=    9268kB time=00:00:15.75 bitrate=4820.0kbits/s speed=0.0466x    frame=  457 fps=1.3 q=34.0 size=    9268kB time=00:00:15.79 bitrate=4807.2kbits/s speed=0.0466x    frame=  458 fps=1.3 q=34.0 size=    9268kB time=00:00:15.83 bitrate=4794.8kbits/s speed=0.0466x    frame=  459 fps=1.3 q=34.0 size=    9268kB time=00:00:15.87 bitrate=4782.1kbits/s speed=0.0464x    frame=  461 fps=1.3 q=34.0 size=    9268kB time=00:00:15.95 bitrate=4757.2kbits/s speed=0.0466x    frame=  463 fps=1.3 q=34.0 size=    9268kB time=00:00:16.04 bitrate=4732.3kbits/s speed=0.0467x    frame=  464 fps=1.3 q=34.0 size=    9268kB time=00:00:16.08 bitrate=4720.2kbits/s speed=0.0466x    frame=  465 fps=1.3 q=34.0 size=    9268kB time=00:00:16.12 bitrate=4707.9kbits/s speed=0.0466x    frame=  466 fps=1.3 q=34.0 size=    9268kB time=00:00:16.16 bitrate=4695.7kbits/s speed=0.0467x    frame=  468 fps=1.3 q=34.0 size=    9268kB time=00:00:16.25 bitrate=4671.7kbits/s speed=0.0466x    frame=  470 fps=1.3 q=34.0 size=    9268kB time=00:00:16.33 bitrate=4648.0kbits/s speed=0.0467x    frame=  471 fps=1.3 q=34.0 size=    9268kB time=00:00:16.37 bitrate=4636.1kbits/s speed=0.0466x    frame=  473 fps=1.3 q=34.0 size=    9268kB time=00:00:16.45 bitrate=4612.7kbits/s speed=0.0467x    frame=  475 fps=1.3 q=34.0 size=    9268kB time=00:00:16.54 bitrate=4589.3kbits/s speed=0.0468x    frame=  476 fps=1.3 q=34.0 size=    9268kB time=00:00:16.58 bitrate=4577.9kbits/s speed=0.0465x    frame=  478 fps=1.3 q=34.0 size=    9268kB time=00:00:16.66 bitrate=4554.8kbits/s speed=0.0467x    frame=  482 fps=1.3 q=34.0 size=    9268kB time=00:00:16.83 bitrate=4509.9kbits/s speed=0.0466x    frame=  484 fps=1.3 q=34.0 size=    9268kB time=00:00:16.91 bitrate=4487.5kbits/s speed=0.0467x    frame=  486 fps=1.3 q=34.0 size=    9268kB time=00:00:17.00 bitrate=4465.6kbits/s speed=0.0469x    frame=  488 fps=1.3 q=34.0 size=    9268kB time=00:00:17.08 bitrate=4443.9kbits/s speed=0.0469x    frame=  489 fps=1.3 q=34.0 size=    9268kB time=00:00:17.12 bitrate=4433.0kbits/s speed=0.0469x    frame=  490 fps=1.3 q=34.0 size=    9268kB time=00:00:17.16 bitrate=4422.2kbits/s speed=0.0469x    frame=  494 fps=1.3 q=34.0 size=    9268kB time=00:00:17.33 bitrate=4379.8kbits/s speed=0.0466x    frame=  497 fps=1.3 q=34.0 size=    9268kB time=00:00:17.45 bitrate=4348.5kbits/s speed=0.0468x    frame=  498 fps=1.3 q=34.0 size=    9268kB time=00:00:17.50 bitrate=4338.0kbits/s speed=0.0468x    frame=  500 fps=1.3 q=34.0 size=    9268kB time=00:00:17.58 bitrate=4317.6kbits/s speed=0.0468x    frame=  500 fps=1.2 q=-1.0 Lsize=   12850kB time=00:00:20.70 bitrate=5083.2kbits/s speed=0.0493x    
video:12846kB audio:0kB subtitle:0kB other streams:0kB global headers:0kB muxing overhead: 0.035982%
bench: utime=1577.484s
bench: maxrss=2794192kB
[libx264 @ 0x2b581c0] frame I:3     Avg QP:28.78  size:141277
[libx264 @ 0x2b581c0] frame P:268   Avg QP:36.19  size: 34012
[libx264 @ 0x2b581c0] frame B:229   Avg QP:36.44  size: 15783
[libx264 @ 0x2b581c0] consecutive B-frames: 36.2%  7.6% 18.0% 17.6% 11.0%  9.6%  0.0%  0.0%  0.0%
[libx264 @ 0x2b581c0] mb I  I16..4: 20.8% 75.5%  3.7%
[libx264 @ 0x2b581c0] mb P  I16..4: 14.8% 27.4%  0.1%  P16..4: 21.0%  1.0%  0.9%  0.0%  0.0%    skip:34.7%
[libx264 @ 0x2b581c0] mb B  I16..4:  0.7%  1.3%  0.0%  B16..8: 28.3%  1.6%  0.2%  direct: 0.4%  skip:67.5%  L0:41.3% L1:57.4% BI: 1.3%
[libx264 @ 0x2b581c0] final ratefactor: 31.43
[libx264 @ 0x2b581c0] 8x8 transform intra:64.9% inter:89.9%
[libx264 @ 0x2b581c0] direct mvs  spatial:99.1% temporal:0.9%
[libx264 @ 0x2b581c0] coded y,uvDC,uvAC intra: 9.8% 13.1% 0.4% inter: 2.2% 1.6% 0.0%
[libx264 @ 0x2b581c0] i16 v,h,dc,p: 24% 29%  8% 40%
[libx264 @ 0x2b581c0] i8 v,h,dc,ddl,ddr,vr,hd,vl,hu: 22% 13% 49%  2%  3%  3%  3%  2%  3%
[libx264 @ 0x2b581c0] i4 v,h,dc,ddl,ddr,vr,hd,vl,hu: 16% 16%  9%  7% 11% 10% 13%  6% 12%
[libx264 @ 0x2b581c0] i8c dc,h,v,p: 81% 12%  5%  1%
[libx264 @ 0x2b581c0] Weighted P-Frames: Y:1.5% UV:1.1%
[libx264 @ 0x2b581c0] ref P L0: 59.2% 13.3% 11.4%  3.8%  2.5%  2.0%  1.8%  1.0%  0.9%  0.8%  0.7%  0.6%  0.5%  0.5%  0.4%  0.3%
[libx264 @ 0x2b581c0] ref B L0: 87.0%  5.8%  2.6%  1.1%  0.8%  0.7%  0.5%  0.3%  0.3%  0.2%  0.2%  0.2%  0.2%  0.1%  0.1%
[libx264 @ 0x2b581c0] ref B L1: 98.4%  1.6%
[libx264 @ 0x2b581c0] kb/s:5050.82
